<mxfile host="65bd71144e">
    <diagram id="swarm-replica-schema" name="Swarm Replica Schema">
        <mxGraphModel dx="1561" dy="492" grid="1" gridSize="10" guides="1" tooltips="1" connect="1" arrows="1" fold="1" page="1" pageScale="1" pageWidth="850" pageHeight="1100" math="0" shadow="0">
            <root>
                <mxCell id="0"/>
                <mxCell id="1" parent="0"/>
                <mxCell id="2" value="api (3 replicas)" style="rounded=1;fillColor=#e1f5fe;strokeColor=#0277bd;" parent="1" vertex="1">
                    <mxGeometry x="-40" y="10" width="160" height="60" as="geometry"/>
                </mxCell>
                <mxCell id="3" value="caddy (2 replicas)" style="rounded=1;fillColor=#fff3e0;strokeColor=#f57c00;" parent="1" vertex="1">
                    <mxGeometry x="440" y="10" width="160" height="60" as="geometry"/>
                </mxCell>
                <mxCell id="4" value="worker (2 replicas)" style="rounded=1;fillColor=#e8f5e9;strokeColor=#388e3c;" parent="1" vertex="1">
                    <mxGeometry x="-50" y="130" width="160" height="60" as="geometry"/>
                </mxCell>
                <mxCell id="5" value="scheduler (1 replica)" style="rounded=1;fillColor=#f3e5f5;strokeColor=#7b1fa2;" parent="1" vertex="1">
                    <mxGeometry x="380" y="130" width="160" height="60" as="geometry"/>
                </mxCell>
                <mxCell id="6" value="postgres (1 replica)" style="rounded=1;fillColor=#ede7f6;strokeColor=#283593;" parent="1" vertex="1">
                    <mxGeometry x="60" y="260" width="160" height="60" as="geometry"/>
                </mxCell>
                <mxCell id="7" value="redis (1 replica)" style="rounded=1;fillColor=#ffebee;strokeColor=#c62828;" parent="1" vertex="1">
                    <mxGeometry x="260" y="260" width="160" height="60" as="geometry"/>
                </mxCell>
                <mxCell id="8" value="stakc_network (bridge)" style="ellipse;fillColor=#cfd8dc;strokeColor=#455a64;" parent="1" vertex="1">
                    <mxGeometry x="160" y="360" width="160" height="60" as="geometry"/>
                </mxCell>
                <mxCell id="9" style="edgeStyle=orthogonalEdgeStyle;rounded=0;jettySize=auto;orthogonalLoop=1;strokeColor=#0277bd;" parent="1" source="2" target="8" edge="1">
                    <mxGeometry relative="1" as="geometry"/>
                </mxCell>
                <mxCell id="10" style="edgeStyle=orthogonalEdgeStyle;rounded=0;jettySize=auto;orthogonalLoop=1;strokeColor=#f57c00;" parent="1" source="3" target="8" edge="1">
                    <mxGeometry relative="1" as="geometry"/>
                </mxCell>
                <mxCell id="11" style="edgeStyle=orthogonalEdgeStyle;rounded=0;jettySize=auto;orthogonalLoop=1;strokeColor=#388e3c;" parent="1" source="4" target="8" edge="1">
                    <mxGeometry relative="1" as="geometry"/>
                </mxCell>
                <mxCell id="12" style="edgeStyle=orthogonalEdgeStyle;rounded=0;jettySize=auto;orthogonalLoop=1;strokeColor=#7b1fa2;" parent="1" source="5" target="8" edge="1">
                    <mxGeometry relative="1" as="geometry"/>
                </mxCell>
                <mxCell id="13" style="edgeStyle=orthogonalEdgeStyle;rounded=0;jettySize=auto;orthogonalLoop=1;strokeColor=#283593;" parent="1" source="6" target="8" edge="1">
                    <mxGeometry relative="1" as="geometry"/>
                </mxCell>
                <mxCell id="14" style="edgeStyle=orthogonalEdgeStyle;rounded=0;jettySize=auto;orthogonalLoop=1;strokeColor=#c62828;" parent="1" source="7" target="8" edge="1">
                    <mxGeometry relative="1" as="geometry"/>
                </mxCell>
            </root>
        </mxGraphModel>
    </diagram>
</mxfile>